<?xml version="1.0" encoding="utf-8"?>
<!-- Generator: Adobe Illustrator 26.0.2, SVG Export Plug-In . SVG Version: 6.00 Build 0)  -->
<svg version="1.1" id="Warstwa_1" xmlns="http://www.w3.org/2000/svg" xmlns:xlink="http://www.w3.org/1999/xlink" x="0px" y="0px"
	 viewBox="0 0 500 113.6" style="enable-background:new 0 0 500 113.6;" xml:space="preserve">
<style type="text/css">
	.st0{fill:#6772E5;}
</style>
<g>
	<g>
		<path class="st0" d="M462.8,7.9c-7.9,1.7-13.7,7-16,14.4c-0.7,2.4-0.8,3.7-0.7,7.3c0.2,3.7,0.4,4.8,1.5,7.2
			c2.9,6.2,7.3,9.3,18.1,12.8c10.2,3.3,12.6,4.8,12.6,8.1s-2.8,5-8.1,5c-5.8,0-9.8-2.1-12.2-6.7c-0.7-1.3-1.4-2.4-1.7-2.4
			s-3.3,1.7-6.8,3.8c-4.7,2.9-6.3,4-6.2,4.6c0.3,1.7,3,5.9,5.2,8.3c4.9,5.4,10.7,7.9,19.2,8.2c9.4,0.4,15.8-1.7,21.1-7.2
			c5.6-5.7,6.8-16.4,2.8-23.8c-1.4-2.6-4.7-5.7-8-7.4c-1.4-0.7-5.7-2.4-9.5-3.7c-7.9-2.7-8.8-3.1-10.9-4.9c-1.3-1.1-1.5-1.6-1.5-3.1
			c0-3.2,2.2-4.9,6.4-4.9c4.5,0,7.8,2,9.8,5.7c0.6,1.1,1.2,1.9,1.5,1.9c0.3-0.1,3.3-1.8,6.7-4l6.2-3.8l-1.4-2.6
			c-0.8-1.4-2.7-4-4.3-5.7C480.7,8.8,471.5,6,462.8,7.9z"/>
		<path class="st0" d="M115.7,9.1c-0.1,0.3-0.2,15.8-0.1,34.3l0.1,33.8h20.6h20.6v-7.6v-7.6l-12.8-0.1l-12.9-0.1v-5.5v-5.5l11.4-0.1
			l11.3-0.1l0.1-7.8l0.1-7.7h-11.5h-11.5v-5.3v-5.3h12.7h12.7l-0.1-7.8l-0.1-7.7l-20.3-0.1C120.1,8.5,115.8,8.6,115.7,9.1z"/>
		<path class="st0" d="M165,9.1c-0.1,0.3-0.2,15.8-0.1,34.3l0.1,33.8h7.6h7.6l0.2-17.6l0.2-17.6l12,17.8l12,17.8l5.8-0.1l5.8-0.1V43
			V8.8h-7.6h-7.6L201,26.3c0,9.6-0.3,17.5-0.4,17.5c-0.2,0-5.7-7.9-12.2-17.6L176.5,8.5h-5.7C166.7,8.5,165.1,8.7,165,9.1z"/>
		<path class="st0" d="M222.4,8.8c-0.2,0.1-0.3,3.7-0.3,7.9v7.6h8.3h8.3l0.1,26.4l0.1,26.5l7.7,0.1l7.8,0.1l0.1-26.4l0.1-26.5
			l8.2-0.1l8.2-0.1l-0.1-7.8l-0.1-7.7l-24-0.1C233.5,8.6,222.5,8.7,222.4,8.8z"/>
		<path class="st0" d="M277.1,9.1C277,9.3,277,24.8,277,43.4l0.1,33.8h7.6h7.6l0.1-11l0.1-11l3.3,0.1l3.2,0.1l6,10.9l6,11h8.2
			c6,0,8.2-0.1,8.2-0.5c0-0.3-2.8-5.7-6.3-12c-3.5-6.3-6.5-11.8-6.6-12.2c-0.2-0.4,0.4-1.1,1.7-1.9c2.9-1.9,6.3-6.2,7.9-9.9
			c2.4-5.8,2.1-13.6-0.7-19.3c-2.8-5.5-7.9-10-13.3-11.9c-2.6-0.9-3.7-0.9-17.8-1.1C280.2,8.5,277.3,8.6,277.1,9.1z M304.3,24.3
			c2.3,0.5,3.7,1.6,4.8,3.8c1.2,2.3,1.2,5.9,0.1,8.3c-1.7,3.6-3.7,4.4-11.2,4.5h-5.4v-8.2c0-4.5,0.1-8.4,0.3-8.5
			C293.4,23.7,302.4,23.8,304.3,24.3z"/>
		<path class="st0" d="M334.1,9.1c-0.1,0.3-0.2,15.8-0.1,34.3l0.1,33.8h7.6h7.6V43V8.8l-7.6-0.1C336,8.5,334.2,8.6,334.1,9.1z"/>
		<path class="st0" d="M354.9,8.9c-0.1,0.2,4.5,15.6,10.3,34.3l10.5,33.9l9.8,0.1c9,0.1,9.8,0,10-0.6c0.1-0.4,4.8-15.6,10.5-33.6
			c5.6-18.1,10.2-33.2,10.2-33.7c0-0.7-0.4-0.8-8.3-0.7l-8.4,0.1l-6.8,23.8c-3.7,13.1-6.9,23.9-7,24c-0.1,0.1-0.2,0.1-0.3,0
			c-0.2-0.1-6.8-22.9-13.3-45.8l-0.6-2.2h-8.2C358.8,8.5,355.1,8.7,354.9,8.9z"/>
		<path class="st0" d="M421.6,9.1c-0.1,0.3-0.2,15.8-0.1,34.3l0.1,33.8h7.6h7.6V43V8.8l-7.6-0.1C423.5,8.5,421.7,8.6,421.6,9.1z"/>
	</g>
	<g>
		<path class="st0" d="M119.1,101.2h6.2v3.4h-9.7V89.2h9.6v3.4h-6.1v2.6h5.5v3.4h-5.5V101.2z"/>
		<path class="st0" d="M142.5,94.6c0.8,0.8,1.1,1.9,1.1,3.3v6.8h-3.3v-6.5c0-1.1-0.6-1.8-1.6-1.8c-1.1,0-1.7,0.8-1.7,2.1v6.2h-3.3
			v-6.5c0-1.1-0.6-1.8-1.6-1.8c-1.1,0-1.7,0.8-1.7,2.1v6.2h-3.3v-11h3.3v1c0.6-0.9,1.6-1.3,3-1.3c1.3,0,2.3,0.5,2.9,1.5
			c0.7-1,1.7-1.5,3.2-1.5C140.7,93.3,141.8,93.7,142.5,94.6z"/>
		<path class="st0" d="M156.3,95c1,1.1,1.5,2.5,1.5,4.1c0,1.6-0.5,3-1.5,4.2c-1,1.1-2.3,1.7-3.7,1.7c-1.4,0-2.5-0.4-3.3-1.3v5.5
			h-3.3V93.6h3.3v1c0.8-0.9,1.9-1.3,3.3-1.3C154,93.3,155.2,93.9,156.3,95z M151.9,101.8c0.8,0,1.4-0.2,1.9-0.7
			c0.5-0.5,0.8-1.1,0.8-2c0-0.8-0.2-1.5-0.8-2c-0.5-0.5-1.1-0.7-1.9-0.7c-0.8,0-1.4,0.2-1.9,0.7c-0.5,0.5-0.7,1.1-0.7,2
			c0,0.8,0.2,1.5,0.7,2C150.5,101.6,151.1,101.8,151.9,101.8z"/>
		<path class="st0" d="M165,105c-1.6,0-3-0.6-4.1-1.7c-1.1-1.1-1.7-2.5-1.7-4.2c0-1.6,0.6-3,1.7-4.1c1.1-1.1,2.5-1.7,4.1-1.7
			c1.6,0,3,0.6,4.2,1.7c1.1,1.1,1.7,2.5,1.7,4.1c0,1.6-0.6,3-1.7,4.2C168,104.4,166.6,105,165,105z M165,101.7
			c0.7,0,1.3-0.2,1.8-0.7c0.5-0.5,0.7-1.1,0.7-1.9c0-0.8-0.2-1.4-0.7-1.9s-1.1-0.7-1.8-0.7c-0.7,0-1.3,0.2-1.8,0.7
			c-0.5,0.5-0.7,1.1-0.7,1.9c0,0.8,0.2,1.4,0.7,1.9C163.7,101.5,164.3,101.7,165,101.7z"/>
		<path class="st0" d="M184.4,93.6h3.5l-3.5,11h-3.1l-1.8-5.9l-1.8,5.9h-3.1l-3.5-11h3.5l1.6,5.9l1.7-5.9h3.1l1.7,5.9L184.4,93.6z"
			/>
		<path class="st0" d="M191.8,100.5c0.4,1,1.3,1.5,2.6,1.5c0.9,0,1.6-0.3,2.1-0.8l2.6,1.5c-1.1,1.5-2.7,2.3-4.8,2.3
			c-1.9,0-3.3-0.6-4.5-1.7c-1.1-1.1-1.7-2.5-1.7-4.2c0-1.7,0.6-3,1.6-4.1c1.1-1.1,2.5-1.7,4.2-1.7c1.6,0,2.9,0.6,4,1.7
			c1.1,1.1,1.6,2.5,1.6,4.1c0,0.5,0,0.9-0.1,1.3H191.8z M196.5,98c-0.3-1.2-1.1-1.7-2.3-1.7c-1.3,0-2.1,0.6-2.4,1.7H196.5z"/>
		<path class="st0" d="M204.9,95.6c0.4-1.4,1.8-2.2,3.3-2.2v3.8c-0.8-0.1-1.6,0-2.3,0.4c-0.7,0.4-1,1.1-1,2.1v5h-3.3v-11h3.3V95.6z"
			/>
		<path class="st0" d="M210,92.1c-0.8-0.8-0.8-2,0-2.8c0.8-0.8,2-0.8,2.8,0c0.8,0.8,0.8,2,0,2.8C212.1,92.8,210.8,92.8,210,92.1z
			 M209.8,104.6v-11h3.3v11H209.8z"/>
		<path class="st0" d="M224.9,94.5c0.8,0.8,1.2,1.9,1.2,3.4v6.8h-3.3v-6.3c0-1.3-0.8-2-1.9-2c-1.3,0-2.1,0.8-2.1,2.3v6h-3.3v-11h3.3
			v1c0.7-0.9,1.7-1.3,3.2-1.3C223.2,93.3,224.2,93.7,224.9,94.5z"/>
		<path class="st0" d="M236.5,93.6h3.2v10.5c0,1.7-0.6,3-1.7,3.9c-1.1,0.9-2.5,1.3-4.1,1.3c-2.5,0-4.2-0.9-5.2-2.7l2.8-1.6
			c0.5,0.9,1.3,1.4,2.5,1.4c1.6,0,2.5-0.8,2.5-2.4v-1c-0.8,0.9-1.8,1.4-3.2,1.4c-1.5,0-2.8-0.6-3.9-1.6c-1-1.1-1.5-2.4-1.5-4
			c0-1.5,0.5-2.9,1.5-4c1-1.1,2.3-1.7,3.9-1.7c1.4,0,2.4,0.5,3.2,1.4V93.6z M233.8,101.5c0.8,0,1.4-0.2,1.9-0.7
			c0.5-0.5,0.7-1.1,0.7-1.9c0-0.8-0.2-1.4-0.7-1.9c-0.5-0.5-1.1-0.7-1.9-0.7c-0.8,0-1.4,0.2-1.9,0.7c-0.5,0.5-0.7,1.1-0.7,1.9
			c0,0.8,0.2,1.4,0.7,1.9C232.4,101.2,233.1,101.5,233.8,101.5z"/>
		<path class="st0" d="M259.2,100.1c0,1.3-0.5,2.4-1.4,3.3c-0.9,0.8-2.1,1.3-3.6,1.3h-6.5V89.2h6c1.4,0,2.5,0.4,3.5,1.2
			c0.9,0.8,1.4,1.9,1.4,3.2c0,1.2-0.4,2.3-1.3,3C258.6,97.5,259.2,98.6,259.2,100.1z M251.3,92.5v2.7h2.5c0.8,0,1.3-0.6,1.3-1.4
			s-0.6-1.4-1.3-1.4H251.3z M254.3,101.3c0.9,0,1.5-0.6,1.5-1.5s-0.6-1.5-1.5-1.5h-3v3H254.3z"/>
		<path class="st0" d="M268.2,93.6h3.3v11h-3.3v-1c-0.7,0.9-1.7,1.3-3.2,1.3c-1.2,0-2.2-0.4-3-1.2c-0.8-0.8-1.2-1.9-1.2-3.4v-6.8
			h3.3v6.3c0,1.3,0.8,2,1.9,2c1.3,0,2.1-0.8,2.1-2.3V93.6z"/>
		<path class="st0" d="M278.9,97.8c1.5,0.3,3.5,1.1,3.5,3.5c0,1.2-0.4,2.1-1.3,2.7c-0.9,0.6-2,0.9-3.3,0.9c-2.3,0-3.9-0.9-4.7-2.6
			l2.9-1.6c0.3,0.9,0.9,1.3,1.9,1.3c0.8,0,1.2-0.2,1.2-0.7c0-0.4-0.9-0.7-1.9-1c-1.5-0.4-3.5-1.2-3.5-3.4c0-1.1,0.4-2,1.2-2.7
			c0.8-0.6,1.9-0.9,3.1-0.9c1.8,0,3.4,0.8,4.3,2.4l-2.8,1.5c-0.4-0.6-0.8-1-1.5-1c-0.6,0-0.9,0.2-0.9,0.6
			C277,97.3,277.9,97.5,278.9,97.8z"/>
		<path class="st0" d="M284.3,92.1c-0.8-0.8-0.8-2,0-2.8c0.8-0.8,2-0.8,2.8,0c0.8,0.8,0.8,2,0,2.8C286.4,92.8,285.1,92.8,284.3,92.1
			z M284.1,104.6v-11h3.3v11H284.1z"/>
		<path class="st0" d="M299.2,94.5c0.8,0.8,1.2,1.9,1.2,3.4v6.8h-3.3v-6.3c0-1.3-0.8-2-1.9-2c-1.3,0-2.1,0.8-2.1,2.3v6h-3.3v-11h3.3
			v1c0.7-0.9,1.7-1.3,3.2-1.3C297.5,93.3,298.5,93.7,299.2,94.5z"/>
		<path class="st0" d="M305.7,100.5c0.4,1,1.3,1.5,2.6,1.5c0.9,0,1.6-0.3,2.1-0.8l2.6,1.5c-1.1,1.5-2.7,2.3-4.8,2.3
			c-1.9,0-3.3-0.6-4.5-1.7c-1.1-1.1-1.7-2.5-1.7-4.2c0-1.7,0.6-3,1.6-4.1c1.1-1.1,2.5-1.7,4.2-1.7c1.6,0,2.9,0.6,4,1.7
			c1.1,1.1,1.6,2.5,1.6,4.1c0,0.5,0,0.9-0.1,1.3H305.7z M310.3,98c-0.3-1.2-1.1-1.7-2.3-1.7c-1.3,0-2.1,0.6-2.4,1.7H310.3z"/>
		<path class="st0" d="M320.1,97.8c1.5,0.3,3.5,1.1,3.5,3.5c0,1.2-0.4,2.1-1.3,2.7c-0.9,0.6-2,0.9-3.3,0.9c-2.3,0-3.9-0.9-4.7-2.6
			l2.9-1.6c0.3,0.9,0.9,1.3,1.9,1.3c0.8,0,1.2-0.2,1.2-0.7c0-0.4-0.9-0.7-1.9-1c-1.5-0.4-3.5-1.2-3.5-3.4c0-1.1,0.4-2,1.2-2.7
			c0.8-0.6,1.9-0.9,3.1-0.9c1.8,0,3.4,0.8,4.3,2.4l-2.8,1.5c-0.4-0.6-0.8-1-1.5-1c-0.6,0-0.9,0.2-0.9,0.6
			C318.2,97.3,319,97.5,320.1,97.8z"/>
		<path class="st0" d="M329.8,97.8c1.5,0.3,3.5,1.1,3.5,3.5c0,1.2-0.4,2.1-1.3,2.7c-0.9,0.6-2,0.9-3.3,0.9c-2.3,0-3.9-0.9-4.7-2.6
			l2.9-1.6c0.3,0.9,0.9,1.3,1.9,1.3c0.8,0,1.2-0.2,1.2-0.7c0-0.4-0.9-0.7-1.9-1c-1.5-0.4-3.5-1.2-3.5-3.4c0-1.1,0.4-2,1.2-2.7
			c0.8-0.6,1.9-0.9,3.1-0.9c1.8,0,3.4,0.8,4.3,2.4l-2.8,1.5c-0.4-0.6-0.8-1-1.5-1c-0.6,0-0.9,0.2-0.9,0.6
			C327.9,97.3,328.7,97.5,329.8,97.8z"/>
		<path class="st0" d="M351,89.2v3.4h-4v12.1h-3.5V92.6h-4v-3.4H351z"/>
		<path class="st0" d="M354.5,95.6c0.4-1.4,1.8-2.2,3.3-2.2v3.8c-0.8-0.1-1.6,0-2.3,0.4c-0.7,0.4-1,1.1-1,2.1v5h-3.3v-11h3.3V95.6z"
			/>
		<path class="st0" d="M367,93.6h3.3v11H367v-1c-0.8,0.9-1.9,1.3-3.3,1.3c-1.5,0-2.7-0.6-3.7-1.7c-1-1.1-1.5-2.5-1.5-4.2
			c0-1.6,0.5-3,1.5-4.1c1-1.1,2.3-1.7,3.7-1.7c1.4,0,2.5,0.4,3.3,1.3V93.6z M364.4,101.8c0.8,0,1.4-0.2,1.9-0.7
			c0.5-0.5,0.7-1.1,0.7-2c0-0.8-0.2-1.5-0.7-2c-0.5-0.5-1.1-0.7-1.9-0.7c-0.8,0-1.4,0.2-1.9,0.7c-0.5,0.5-0.7,1.1-0.7,2
			c0,0.8,0.2,1.5,0.7,2C363,101.6,363.6,101.8,364.4,101.8z"/>
		<path class="st0" d="M382.1,94.5c0.8,0.8,1.2,1.9,1.2,3.4v6.8H380v-6.3c0-1.3-0.8-2-1.9-2c-1.3,0-2.1,0.8-2.1,2.3v6h-3.3v-11h3.3
			v1c0.7-0.9,1.7-1.3,3.2-1.3C380.4,93.3,381.4,93.7,382.1,94.5z"/>
		<path class="st0" d="M390.7,97.8c1.5,0.3,3.5,1.1,3.5,3.5c0,1.2-0.4,2.1-1.3,2.7c-0.9,0.6-2,0.9-3.3,0.9c-2.3,0-3.9-0.9-4.7-2.6
			l2.9-1.6c0.3,0.9,0.9,1.3,1.9,1.3c0.8,0,1.2-0.2,1.2-0.7c0-0.4-0.9-0.7-1.9-1c-1.5-0.4-3.5-1.2-3.5-3.4c0-1.1,0.4-2,1.2-2.7
			c0.8-0.6,1.9-0.9,3.1-0.9c1.8,0,3.4,0.8,4.3,2.4l-2.8,1.5c-0.4-0.6-0.8-1-1.5-1c-0.6,0-0.9,0.2-0.9,0.6
			C388.7,97.3,389.6,97.5,390.7,97.8z"/>
		<path class="st0" d="M401.8,92.1c-1.4-0.1-2.1,0.4-2.1,1.5h2.1v3.2h-2.1v7.9h-3.3v-7.9h-1.5v-3.2h1.5c0-3.2,1.8-4.9,5.4-4.7V92.1z
			"/>
		<path class="st0" d="M408,105c-1.6,0-3-0.6-4.1-1.7c-1.1-1.1-1.7-2.5-1.7-4.2c0-1.6,0.6-3,1.7-4.1c1.1-1.1,2.5-1.7,4.1-1.7
			c1.6,0,3,0.6,4.2,1.7c1.1,1.1,1.7,2.5,1.7,4.1c0,1.6-0.6,3-1.7,4.2C411,104.4,409.6,105,408,105z M408,101.7
			c0.7,0,1.3-0.2,1.8-0.7c0.5-0.5,0.7-1.1,0.7-1.9c0-0.8-0.2-1.4-0.7-1.9c-0.5-0.5-1.1-0.7-1.8-0.7c-0.7,0-1.3,0.2-1.8,0.7
			c-0.5,0.5-0.7,1.1-0.7,1.9c0,0.8,0.2,1.4,0.7,1.9C406.6,101.5,407.2,101.7,408,101.7z"/>
		<path class="st0" d="M419,95.6c0.4-1.4,1.8-2.2,3.3-2.2v3.8c-0.8-0.1-1.6,0-2.3,0.4c-0.7,0.4-1,1.1-1,2.1v5h-3.3v-11h3.3V95.6z"/>
		<path class="st0" d="M439.3,94.6c0.8,0.8,1.1,1.9,1.1,3.3v6.8h-3.3v-6.5c0-1.1-0.6-1.8-1.6-1.8c-1.1,0-1.7,0.8-1.7,2.1v6.2h-3.3
			v-6.5c0-1.1-0.6-1.8-1.6-1.8c-1.1,0-1.7,0.8-1.7,2.1v6.2h-3.3v-11h3.3v1c0.6-0.9,1.6-1.3,3-1.3c1.3,0,2.3,0.5,2.9,1.5
			c0.7-1,1.7-1.5,3.2-1.5C437.5,93.3,438.5,93.7,439.3,94.6z"/>
		<path class="st0" d="M450.7,93.6h3.3v11h-3.3v-1c-0.8,0.9-1.9,1.3-3.3,1.3c-1.5,0-2.7-0.6-3.7-1.7c-1-1.1-1.5-2.5-1.5-4.2
			c0-1.6,0.5-3,1.5-4.1c1-1.1,2.3-1.7,3.7-1.7c1.4,0,2.5,0.4,3.3,1.3V93.6z M448.1,101.8c0.8,0,1.4-0.2,1.9-0.7
			c0.5-0.5,0.7-1.1,0.7-2c0-0.8-0.2-1.5-0.7-2c-0.5-0.5-1.1-0.7-1.9-0.7c-0.8,0-1.4,0.2-1.9,0.7c-0.5,0.5-0.7,1.1-0.7,2
			c0,0.8,0.2,1.5,0.7,2C446.6,101.6,447.3,101.8,448.1,101.8z"/>
		<path class="st0" d="M462.9,96.8h-2.3v3.9c0,0.9,0.7,1,2.3,0.9v3c-2.1,0.2-3.6,0-4.4-0.6c-0.8-0.6-1.2-1.7-1.2-3.4v-3.9h-1.8v-3.2
			h1.8v-2.1l3.3-1v3.1h2.3V96.8z"/>
		<path class="st0" d="M465,92.1c-0.8-0.8-0.8-2,0-2.8c0.8-0.8,2-0.8,2.8,0c0.8,0.8,0.8,2,0,2.8C467,92.8,465.8,92.8,465,92.1z
			 M464.8,104.6v-11h3.3v11H464.8z"/>
		<path class="st0" d="M475.8,105c-1.6,0-3-0.6-4.1-1.7c-1.1-1.1-1.7-2.5-1.7-4.2c0-1.6,0.6-3,1.7-4.1c1.1-1.1,2.5-1.7,4.1-1.7
			c1.6,0,3,0.6,4.2,1.7c1.1,1.1,1.7,2.5,1.7,4.1c0,1.6-0.6,3-1.7,4.2C478.8,104.4,477.4,105,475.8,105z M475.8,101.7
			c0.7,0,1.3-0.2,1.8-0.7c0.5-0.5,0.7-1.1,0.7-1.9c0-0.8-0.2-1.4-0.7-1.9s-1.1-0.7-1.8-0.7c-0.7,0-1.3,0.2-1.8,0.7
			c-0.5,0.5-0.7,1.1-0.7,1.9c0,0.8,0.2,1.4,0.7,1.9C474.5,101.5,475.1,101.7,475.8,101.7z"/>
		<path class="st0" d="M492.9,94.5c0.8,0.8,1.2,1.9,1.2,3.4v6.8h-3.3v-6.3c0-1.3-0.8-2-1.9-2c-1.3,0-2.1,0.8-2.1,2.3v6h-3.3v-11h3.3
			v1c0.7-0.9,1.7-1.3,3.2-1.3C491.2,93.3,492.1,93.7,492.9,94.5z"/>
	</g>
</g>
<path class="st0" d="M52.2,8.9C25.7,8.9,4.3,30.4,4.3,56.9c0,26.5,21.5,47.9,47.9,47.9c26.5,0,47.9-21.5,47.9-47.9
	C100.1,30.4,78.6,8.9,52.2,8.9z M81.5,64.2c-0.1,9.8-0.1,9.5-1.3,10.3c-0.6,0.4-24,13.9-26.5,15.3c-1.6,0.9-1.7,0.8-5.2-1.1
	c-5-2.8-24.6-14.2-25-14.6c-0.8-0.8-0.8-0.2-0.8-16.6c0-9.3,0.1-15.7,0.2-16.2c0.1-0.5,0.3-1.1,0.4-1.3c0.2-0.2,1.1-0.9,2.1-1.5
	c1-0.6,2.3-1.4,2.8-1.7c1-0.7,18.1-10.5,18.4-10.6c0.1,0,1-0.5,1.9-1c2.7-1.6,2.9-1.6,3.6-1.6c0.4,0,1,0.2,1.6,0.5
	c0.9,0.5,26.4,15.2,27,15.6c0.3,0.2,0,0.4-2.3,1.7c-3.4,2-17.3,10.2-21.9,12.9c-3.8,2.2-4.4,2.5-5.4,2.1c-0.3-0.1-2.7-1.6-5.3-3.3
	c-5.5-3.5-5.6-3.6-5.8-3.2C39.9,50,39.9,64,40,64.7c0.1,0.4,0.5,0.7,5.7,3.8c3.1,1.8,5.8,3.4,6.1,3.5c0.5,0.2,0.6,0.2,1.1,0
	c0.3-0.1,6.8-3.9,14.5-8.4s14-8.2,14.1-8.2C81.6,55.5,81.6,58.3,81.5,64.2z"/>
</svg>
